<?xml version="1.0" encoding="utf-8"?>
<!-- Generator: Adobe Illustrator 16.0.0, SVG Export Plug-In . SVG Version: 6.00 Build 0)  -->
<!DOCTYPE svg PUBLIC "-//W3C//DTD SVG 1.1//EN" "http://www.w3.org/Graphics/SVG/1.1/DTD/svg11.dtd">
<svg version="1.1" id="Capa_1" xmlns="http://www.w3.org/2000/svg" xmlns:xlink="http://www.w3.org/1999/xlink" x="0px" y="0px"
	 width="57.5px" height="58.75px" viewBox="0 0 57.5 58.75" enable-background="new 0 0 57.5 58.75" xml:space="preserve">
<g>
	<path id="path3342" fill="#040606" d="M8.75,6.25c0-1.381,1.12-2.5,2.5-2.5h35c1.381,0,2.5,1.119,2.5,2.5V27.5
		c0,1.38-1.119,2.5-2.5,2.5h-35c-1.38,0-2.5-1.12-2.5-2.5V6.25z M7.365,56.697c0.976,0.977,1.844,2.053,2.82,2.053
		c1.162,0,1.064-1.404,1.064-2.785l0.069-10.825c0.014-2.105,1.73-3.801,3.835-3.788l19.806,0.12
		c2.097,0.013,3.789,1.716,3.789,3.813v9.653c0,2.105,1.707,3.813,3.813,3.813h11.125c2.105,0,3.813-1.707,3.813-3.813V3.813
		C57.5,1.707,55.793,0,53.688,0H3.813C1.707,0,0,1.707,0,3.813v42.516c0,1.381,0,2.542,1.516,4.27L7.365,56.697"/>
	<path id="path3344" fill="#040606" d="M21.25,58.75c1.381,0,2.5-1.12,2.5-2.5V50c0-1.381-1.119-2.5-2.5-2.5H20
		c-1.38,0-2.5,1.119-2.5,2.5v6.25c0,1.38,1.12,2.5,2.5,2.5H21.25"/>
</g>
</svg>
